<svg xmlns="http://www.w3.org/2000/svg" display="none">

    <symbol id="fb" viewBox="0 0 18 18">
        <g>
            <path d="M16.5 0H1.5C0.67125 0 0 0.67125 0 1.5V16.5C0 17.3288 0.67125 18 1.5 18H9.75V11.25H7.5V8.25H9.75V6.30975C9.75 3.98475 11.1698 2.71875 13.2443 2.71875C14.238 2.71875 15.0915 2.793 15.3405 2.826V5.256L13.902 5.25675C12.774 5.25675 12.5557 5.793 12.5557 6.579V8.25H15.8857L15.1357 11.25H12.5557V18H16.5C17.3288 18 18 17.3288 18 16.5V1.5C18 0.67125 17.3288 0 16.5 0Z"
                  fill="#1AA3E0"/>
        </g>
    </symbol>


    <symbol id="twitter" viewBox="0 0 18 18">
        <g>
            <path d="M18 3.44961C17.325 3.74961 16.65 3.97461 15.9 4.04961C16.65 3.59961 17.25 2.84961 17.55 2.02461C16.8 2.47461 16.05 2.77461 15.225 2.92461C14.55 2.17461 13.575 1.72461 12.525 1.72461C10.5 1.72461 8.85 3.37461 8.85 5.39961C8.85 5.69961 8.85 5.99961 8.925 6.22461C5.775 6.07461 3.075 4.57461 1.275 2.32461C0.9 2.92461 0.75 3.52461 0.75 4.19961C0.75 5.47461 1.425 6.59961 2.4 7.27461C1.8 7.27461 1.2 7.12461 0.75 6.82461C0.75 6.82461 0.75 6.82461 0.75 6.89961C0.75 8.69961 2.025 10.1996 3.675 10.4996C3.375 10.5746 3.075 10.6496 2.7 10.6496C2.475 10.6496 2.25 10.6496 2.025 10.5746C2.475 12.0746 3.825 13.1246 5.475 13.1246C4.2 14.0996 2.625 14.6996 0.9 14.6996C0.6 14.6996 0.3 14.6996 0 14.6246C1.65 15.6746 3.6 16.2746 5.625 16.2746C12.45 16.2746 16.125 10.6496 16.125 5.77461C16.125 5.62461 16.125 5.47461 16.125 5.32461C16.875 4.79961 17.475 4.12461 18 3.44961Z"
                  fill="#1AA3E0"/>
        </g>
    </symbol>

    <symbol id="youtube" viewBox="0 0 18 18">
        <g>
            <path d="M17.85 5.39922C17.85 5.39922 17.7 4.12422 17.1 3.59922C16.425 2.84922 15.675 2.84922 15.3 2.84922C12.75 2.69922 9 2.69922 9 2.69922C9 2.69922 5.25 2.69922 2.7 2.84922C2.325 2.92422 1.575 2.92422 0.9 3.59922C0.375 4.12422 0.15 5.39922 0.15 5.39922C0.15 5.39922 0 6.82422 0 8.32422V9.67422C0 11.0992 0.15 12.5992 0.15 12.5992C0.15 12.5992 0.3 13.8742 0.9 14.3992C1.575 15.1492 2.475 15.0742 2.85 15.1492C4.275 15.2992 9 15.2992 9 15.2992C9 15.2992 12.75 15.2992 15.3 15.0742C15.675 14.9992 16.425 14.9992 17.1 14.3242C17.625 13.7992 17.85 12.5242 17.85 12.5242C17.85 12.5242 18 11.0992 18 9.59922V8.24922C18 6.82422 17.85 5.39922 17.85 5.39922ZM7.125 11.3242V6.29922L12 8.84922L7.125 11.3242Z"
                  fill="#1AA3E0"/>
        </g>
    </symbol>


    <symbol id="union" viewBox="0 0 107 107">
        <g>
                <path d="M6.87926 76.0438H10.3189C10.3189 74.1469 11.8616 72.6043 13.7585 72.6043V69.1647C9.96461 69.1647 6.87926 72.25 6.87926 76.0438Z" fill="#E6E6E6"/>
                <path d="M10.3189 86.3626H6.87926C6.87926 90.1564 9.96461 93.2417 13.7585 93.2417V89.8021C11.8616 89.8021 10.3189 88.2595 10.3189 86.3626Z" fill="#E6E6E6"/>
                <path d="M37.8359 93.2417V89.5528C35.8495 88.9233 34.3963 87.0849 34.3963 84.8939V84.6428H37.8359V84.8939C37.8359 85.7022 38.4946 86.3626 39.3046 86.3626H39.8068C40.6169 86.3626 41.2756 85.7022 41.2756 84.8939C41.2756 84.3332 40.9643 83.8293 40.4638 83.5799L37.1102 81.9031C35.4351 81.0639 34.3963 79.3819 34.3963 77.5125C34.3963 75.3215 35.8495 73.4831 37.8359 72.8536V69.1647H41.2756V72.8536C43.2619 73.4814 44.7152 75.3198 44.7152 77.5125V77.7636H41.2756V77.5125C41.2756 76.7042 40.6169 76.0438 39.8068 76.0438H39.3046C38.4946 76.0438 37.8359 76.7042 37.8359 77.5125C37.8359 78.0732 38.1472 78.5771 38.6477 78.8264L42.0013 80.5032C43.6764 81.3425 44.7152 83.0244 44.7152 84.8939C44.7152 87.0849 43.2619 88.9233 41.2756 89.5528V93.2417H37.8359Z" fill="#E6E6E6"/>
                <path fill-rule="evenodd" clip-rule="evenodd" d="M102.811 83.1225C103.05 82.5274 103.189 81.8825 103.189 81.2032V77.7636C103.189 74.9191 100.874 72.6043 98.0294 72.6043H92.87V21.7226L95.4497 19.143L102.616 26.3093L107 0L80.692 4.38546L87.8585 11.5518L70.5124 28.8976L60.1935 18.5789L16.4861 62.2855H5.15944C2.31487 62.2855 0 64.6004 0 67.4449V94.9615C0 97.806 2.31487 100.121 5.15944 100.121H65.353V101.841C65.353 104.685 67.6678 107 70.5124 107H98.0294C100.874 107 103.189 104.685 103.189 101.841V98.4011C103.189 97.7217 103.05 97.0768 102.811 96.4818C105.003 95.8867 106.629 93.9004 106.629 91.5219V88.0823C106.629 85.7039 105.003 83.7158 102.811 83.1225ZM99.7493 77.7636V81.2032C99.7493 82.1525 98.9771 82.923 98.0294 82.923H70.5124C69.5648 82.923 68.7926 82.1525 68.7926 81.2032V77.7636C68.7926 76.8143 69.5648 76.0438 70.5124 76.0438H72.2322V79.4834H75.6719V76.0438H79.1115V79.4834H82.5511V76.0438H85.9907V79.4834H89.4304V76.0438H92.87V79.4834H96.3096V76.0438H98.0294C98.9771 76.0438 99.7493 76.8143 99.7493 77.7636ZM31.6687 62.2855L41.2756 52.6788V62.2855H31.6687ZM48.1548 45.7997V62.2855H44.7152V49.2392L48.1548 45.7997ZM51.5944 42.3601L55.0341 38.9205V62.2855H51.5944V42.3601ZM58.4737 35.4809L60.1935 33.7611L61.9133 35.4809V62.2855H58.4737V35.4809ZM65.353 38.9205L68.7926 42.3601V62.2855H65.353V38.9205ZM72.2322 42.3601L75.6719 38.9205V62.602C75.1318 62.4094 74.5574 62.2855 73.952 62.2855H72.2322V42.3601ZM79.1115 35.4809L82.5511 32.0414V72.6043H79.1115V35.4809ZM89.4304 72.6043H85.9907V28.6018L89.4304 25.1622V72.6043ZM60.1935 23.4424L70.5124 33.7611L92.7221 11.5518L87.8499 6.67965L102.817 4.18596L100.322 19.1516L95.4497 14.2794L70.5124 39.2163L60.1935 28.8976L26.805 62.2855H21.3498L60.1935 23.4424ZM5.15944 96.6813C4.21183 96.6813 3.43963 95.9108 3.43963 94.9615V67.4449C3.43963 66.4956 4.21183 65.7251 5.15944 65.7251H28.7123C23.8384 69.1509 20.6378 74.8056 20.6378 81.2032C20.6378 87.6008 23.8384 93.2555 28.7123 96.6813H5.15944ZM39.5557 65.7251C48.0895 65.7251 55.0341 72.6679 55.0341 81.2032C55.0341 89.7385 48.0895 96.6813 39.5557 96.6813C31.022 96.6813 24.0774 89.7385 24.0774 81.2032C24.0774 72.6679 31.022 65.7251 39.5557 65.7251ZM58.4737 81.2032C58.4737 74.8056 55.2731 69.1509 50.3992 65.7251H73.952C74.8997 65.7251 75.6719 66.4956 75.6719 67.4449V72.6043H70.5124C67.6678 72.6043 65.353 74.9191 65.353 77.7636V81.2032C65.353 83.5817 66.9782 85.5697 69.171 86.1631C68.9319 86.7581 68.7926 87.403 68.7926 88.0823V91.5219C68.7926 92.2012 68.9319 92.8462 69.171 93.4412C67.5371 93.8849 66.2335 95.1008 65.6694 96.6813H50.3975C55.2731 93.2555 58.4737 87.6008 58.4737 81.2032ZM99.7493 101.841C99.7493 102.79 98.9771 103.56 98.0294 103.56H70.5124C69.5648 103.56 68.7926 102.79 68.7926 101.841V98.4011C68.7926 97.4517 69.5648 96.6813 70.5124 96.6813H72.2322V100.121H75.6719V96.6813H79.1115V100.121H82.5511V96.6813H85.9907V100.121H89.4304V96.6813H92.87V100.121H96.3096V96.6813H98.0294C98.9771 96.6813 99.7493 97.4517 99.7493 98.4011V101.841ZM103.189 91.5219C103.189 92.4712 102.417 93.2417 101.469 93.2417H73.952C73.0044 93.2417 72.2322 92.4712 72.2322 91.5219V88.0823C72.2322 87.133 73.0044 86.3626 73.952 86.3626H75.6719V89.8021H79.1115V86.3626H82.5511V89.8021H85.9907V86.3626H89.4304V89.8021H92.87V86.3626H96.3096V89.8021H99.7493V86.3626H101.469C102.417 86.3626 103.189 87.133 103.189 88.0823V91.5219Z" fill="#E6E6E6"/>
                <path fill-rule="evenodd" clip-rule="evenodd" d="M0 0.373199H30.9567V10.6919H0V0.373199ZM3.43963 7.25235H27.517V3.81277H3.43963V7.25235Z" fill="#E6E6E6"/>
                <path d="M0 14.1315H30.9567V17.5711H0V14.1315Z" fill="#E6E6E6"/>
                <path d="M30.9567 21.0106H0V24.4502H30.9567V21.0106Z" fill="#E6E6E6"/>
                <path d="M0 34.7689H30.9567V38.2085H0V34.7689Z" fill="#E6E6E6"/>
                <path d="M3.43963 27.8898H0V31.3294H3.43963V27.8898Z" fill="#E6E6E6"/>
                <path d="M6.87926 27.8898H10.3189V31.3294H6.87926V27.8898Z" fill="#E6E6E6"/>
                <path d="M30.9567 27.8898H13.7585V31.3294H30.9567V27.8898Z" fill="#E6E6E6"/>
        </g>
    </symbol>
</svg>
